G04 #@! TF.GenerationSoftware,KiCad,Pcbnew,(5.0.0)*
G04 #@! TF.CreationDate,2018-09-12T16:59:20-04:00*
G04 #@! TF.ProjectId,ELED-350R2,454C45442D33353052322E6B69636164,2*
G04 #@! TF.SameCoordinates,Original*
G04 #@! TF.FileFunction,Soldermask,Top*
G04 #@! TF.FilePolarity,Negative*
%FSLAX46Y46*%
G04 Gerber Fmt 4.6, Leading zero omitted, Abs format (unit mm)*
G04 Created by KiCad (PCBNEW (5.0.0)) date 09/12/18 16:59:20*
%MOMM*%
%LPD*%
G01*
G04 APERTURE LIST*
%ADD10R,1.150000X1.200000*%
%ADD11R,3.100000X2.950000*%
%ADD12R,1.200000X1.150000*%
%ADD13R,2.950000X3.100000*%
%ADD14R,1.000000X0.850000*%
%ADD15R,1.000000X1.200000*%
%ADD16R,1.000000X1.900000*%
%ADD17R,2.000000X4.400000*%
%ADD18R,1.400000X3.550000*%
%ADD19R,3.575000X5.350000*%
%ADD20R,6.800000X6.200000*%
%ADD21R,2.600000X1.600000*%
%ADD22R,1.300000X0.900000*%
%ADD23R,0.900000X1.300000*%
%ADD24R,2.100000X1.300000*%
%ADD25R,2.900000X1.300000*%
%ADD26C,3.400000*%
%ADD27R,0.960800X2.381200*%
%ADD28R,3.050000X3.400000*%
%ADD29R,1.710000X1.050000*%
%ADD30R,4.700000X1.300000*%
%ADD31R,4.311600X1.390600*%
%ADD32R,11.855400X10.839400*%
%ADD33R,1.390600X4.311600*%
%ADD34R,10.839400X11.855400*%
%ADD35R,3.600000X1.400000*%
%ADD36R,1.400000X3.600000*%
%ADD37R,1.700000X1.950000*%
%ADD38R,6.200000X6.800000*%
%ADD39R,1.600000X2.600000*%
G04 APERTURE END LIST*
D10*
G04 #@! TO.C,C1*
X272415000Y-82435000D03*
X272415000Y-83935000D03*
G04 #@! TD*
D11*
G04 #@! TO.C,C2*
X197955000Y-82205000D03*
X197955000Y-75855000D03*
G04 #@! TD*
D12*
G04 #@! TO.C,C3*
X196965000Y-67310000D03*
X195465000Y-67310000D03*
G04 #@! TD*
D11*
G04 #@! TO.C,C4*
X207010000Y-74295000D03*
X207010000Y-80645000D03*
G04 #@! TD*
D10*
G04 #@! TO.C,C5*
X135255000Y-58940000D03*
X135255000Y-60440000D03*
G04 #@! TD*
G04 #@! TO.C,C6*
X304800000Y-84685000D03*
X304800000Y-83185000D03*
G04 #@! TD*
D12*
G04 #@! TO.C,C7*
X146685000Y-55880000D03*
X148185000Y-55880000D03*
G04 #@! TD*
G04 #@! TO.C,C8*
X251865000Y-71120000D03*
X253365000Y-71120000D03*
G04 #@! TD*
D13*
G04 #@! TO.C,C9*
X360680000Y-86360000D03*
X367030000Y-86360000D03*
G04 #@! TD*
D11*
G04 #@! TO.C,C10*
X105410000Y-73660000D03*
X105410000Y-67310000D03*
G04 #@! TD*
D14*
G04 #@! TO.C,D2*
X251680000Y-66040000D03*
X253780000Y-66040000D03*
G04 #@! TD*
G04 #@! TO.C,D3*
X197265000Y-70485000D03*
X195165000Y-70485000D03*
G04 #@! TD*
D15*
G04 #@! TO.C,D4*
X263290500Y-89232621D03*
X261590500Y-89232621D03*
G04 #@! TD*
G04 #@! TO.C,D5*
X213360000Y-69215000D03*
X215060000Y-69215000D03*
G04 #@! TD*
D16*
G04 #@! TO.C,D6*
X155450000Y-71500000D03*
X154550000Y-71500000D03*
G04 #@! TD*
G04 #@! TO.C,D7*
X134550000Y-71500000D03*
X135450000Y-71500000D03*
G04 #@! TD*
G04 #@! TO.C,D8*
X115450000Y-71500000D03*
X114550000Y-71500000D03*
G04 #@! TD*
G04 #@! TO.C,D9*
X94550000Y-71500000D03*
X95450000Y-71500000D03*
G04 #@! TD*
G04 #@! TO.C,D10*
X75450000Y-71500000D03*
X74550000Y-71500000D03*
G04 #@! TD*
G04 #@! TO.C,D11*
X285450000Y-71500000D03*
X284550000Y-71500000D03*
G04 #@! TD*
G04 #@! TO.C,D12*
X314550000Y-71500000D03*
X315450000Y-71500000D03*
G04 #@! TD*
G04 #@! TO.C,D13*
X335450000Y-71500000D03*
X334550000Y-71500000D03*
G04 #@! TD*
G04 #@! TO.C,D14*
X354550000Y-71500000D03*
X355450000Y-71500000D03*
G04 #@! TD*
G04 #@! TO.C,D15*
X375450000Y-71500000D03*
X374550000Y-71500000D03*
G04 #@! TD*
D17*
G04 #@! TO.C,J1*
X217303121Y-55222807D03*
X212223121Y-55222807D03*
X207143121Y-55222807D03*
X202063121Y-55222807D03*
X196983121Y-55222807D03*
X191903121Y-55222807D03*
X217303121Y-62622807D03*
X212223121Y-62622807D03*
X207143121Y-62622807D03*
X202063121Y-62622807D03*
X196983121Y-62622807D03*
X191903121Y-62622807D03*
G04 #@! TD*
D18*
G04 #@! TO.C,J2*
X264795000Y-58435000D03*
X264795000Y-63485000D03*
X262255000Y-58435000D03*
X262255000Y-63485000D03*
X259715000Y-58435000D03*
X259715000Y-63485000D03*
G04 #@! TD*
D19*
G04 #@! TO.C,L1*
X66835307Y-84047191D03*
X57820307Y-84047191D03*
G04 #@! TD*
G04 #@! TO.C,L2*
X394507500Y-59000000D03*
X385492500Y-59000000D03*
G04 #@! TD*
D20*
G04 #@! TO.C,Q1*
X241530000Y-70230000D03*
D21*
X247830000Y-67950000D03*
X247830000Y-70230000D03*
X247830000Y-72510000D03*
G04 #@! TD*
D22*
G04 #@! TO.C,R1*
X250190000Y-72275000D03*
X250190000Y-73775000D03*
G04 #@! TD*
D23*
G04 #@! TO.C,R2*
X263120000Y-53340000D03*
X261620000Y-53340000D03*
G04 #@! TD*
G04 #@! TO.C,R3*
X265080500Y-89232621D03*
X266580500Y-89232621D03*
G04 #@! TD*
G04 #@! TO.C,R4*
X213245000Y-73025000D03*
X214745000Y-73025000D03*
G04 #@! TD*
D22*
G04 #@! TO.C,R5*
X137795000Y-58825000D03*
X137795000Y-60325000D03*
G04 #@! TD*
G04 #@! TO.C,R6*
X309245000Y-83070000D03*
X309245000Y-84570000D03*
G04 #@! TD*
D24*
G04 #@! TO.C,R7*
X151765000Y-60050000D03*
X151765000Y-57150000D03*
G04 #@! TD*
G04 #@! TO.C,R8*
X290195000Y-87630000D03*
X290195000Y-84730000D03*
G04 #@! TD*
D25*
G04 #@! TO.C,TH1*
X202063121Y-70210000D03*
X202063121Y-67310000D03*
G04 #@! TD*
D26*
G04 #@! TO.C,TP1*
X251460000Y-80010000D03*
G04 #@! TD*
G04 #@! TO.C,TP2*
X251460000Y-85090000D03*
G04 #@! TD*
D27*
G04 #@! TO.C,U1*
X256540000Y-83820000D03*
X257810000Y-83820000D03*
X259080000Y-83820000D03*
X260350000Y-83820000D03*
X261620000Y-83820000D03*
X262890000Y-83820000D03*
X264160000Y-83820000D03*
X265430000Y-83820000D03*
X266700000Y-83820000D03*
X267970000Y-83820000D03*
X267970000Y-74439998D03*
X266700000Y-74439998D03*
X265430000Y-74439998D03*
X264160000Y-74439998D03*
X262890000Y-74439998D03*
X261620000Y-74439998D03*
X260350000Y-74439998D03*
X259080000Y-74439998D03*
X257810000Y-74439998D03*
X256540000Y-74439998D03*
G04 #@! TD*
D28*
G04 #@! TO.C,U3*
X144780000Y-59690000D03*
D29*
X141935000Y-61595000D03*
X147625000Y-61595000D03*
X141935000Y-60325000D03*
X147625000Y-60325000D03*
X141935000Y-59055000D03*
X147625000Y-59055000D03*
X141935000Y-57785000D03*
X147625000Y-57785000D03*
G04 #@! TD*
G04 #@! TO.C,U4*
X294970000Y-86995000D03*
X300660000Y-86995000D03*
X294970000Y-85725000D03*
X300660000Y-85725000D03*
X294970000Y-84455000D03*
X300660000Y-84455000D03*
X294970000Y-83185000D03*
X300660000Y-83185000D03*
D28*
X297815000Y-85090000D03*
G04 #@! TD*
D30*
G04 #@! TO.C,Y1*
X272010000Y-69445000D03*
X272010000Y-67945000D03*
X272010000Y-66445000D03*
G04 #@! TD*
D31*
G04 #@! TO.C,D1*
X234327700Y-57685000D03*
D32*
X243205000Y-60325000D03*
D31*
X234327700Y-62965000D03*
G04 #@! TD*
D33*
G04 #@! TO.C,D16*
X59687807Y-55169891D03*
D34*
X62327807Y-64047191D03*
D33*
X64967807Y-55169891D03*
G04 #@! TD*
G04 #@! TO.C,D17*
X392640000Y-87877300D03*
D34*
X390000000Y-79000000D03*
D33*
X387360000Y-87877300D03*
G04 #@! TD*
D35*
G04 #@! TO.C,JP2*
X128905000Y-66675000D03*
X128905000Y-72875000D03*
G04 #@! TD*
G04 #@! TO.C,JP1*
X143510000Y-73025000D03*
X143510000Y-66825000D03*
G04 #@! TD*
D36*
G04 #@! TO.C,JP3*
X222175000Y-88900000D03*
X215975000Y-88900000D03*
G04 #@! TD*
G04 #@! TO.C,JP4*
X222885000Y-76200000D03*
X216685000Y-76200000D03*
G04 #@! TD*
G04 #@! TO.C,JP5*
X270660000Y-79375000D03*
X276860000Y-79375000D03*
G04 #@! TD*
D12*
G04 #@! TO.C,C11*
X240500000Y-87285000D03*
X242000000Y-87285000D03*
G04 #@! TD*
D22*
G04 #@! TO.C,R9*
X229705000Y-81685000D03*
X229705000Y-80185000D03*
G04 #@! TD*
D37*
G04 #@! TO.C,SW1*
X238885000Y-83005000D03*
X238885000Y-75055000D03*
X243385000Y-83005000D03*
X243385000Y-75055000D03*
G04 #@! TD*
D22*
G04 #@! TO.C,R10*
X187795000Y-52360000D03*
X187795000Y-53860000D03*
G04 #@! TD*
D38*
G04 #@! TO.C,U2*
X190080000Y-81975000D03*
D39*
X187800000Y-75675000D03*
X192360000Y-75675000D03*
G04 #@! TD*
M02*
